<?xml version="1.0" standalone="no"?>
<!DOCTYPE svg PUBLIC "-//W3C//DTD SVG 20010904//EN"
 "http://www.w3.org/TR/2001/REC-SVG-20010904/DTD/svg10.dtd">
<svg version="1.0" xmlns="http://www.w3.org/2000/svg"
 width="469.000000pt" height="469.000000pt" viewBox="0 0 469.000000 469.000000"
 preserveAspectRatio="xMidYMid meet">
<metadata>
Created by potrace 1.11, written by Peter Selinger 2001-2013
</metadata>
<g transform="translate(0.000000,469.000000) scale(0.100000,-0.100000)"
fill="#000000" stroke="none">
<path d="M1898 3635 c-2 -2 -52 -6 -113 -10 -117 -7 -136 -9 -230 -19 -154
-17 -318 -41 -415 -61 -14 -3 -38 -8 -55 -11 -102 -18 -249 -66 -355 -117
-281 -133 -473 -354 -550 -629 -28 -102 -34 -154 -34 -298 0 -151 6 -197 49
-365 60 -237 97 -292 285 -438 153 -119 427 -271 656 -365 175 -72 471 -163
640 -196 10 -2 64 -13 119 -24 118 -24 285 -48 455 -67 186 -20 362 -30 575
-30 167 0 307 9 325 20 4 2 22 7 40 10 92 16 265 68 375 113 163 67 422 219
524 308 179 157 300 321 350 476 58 177 43 362 -44 569 -155 367 -480 665
-930 849 -44 18 -89 36 -100 41 -59 24 -424 134 -513 154 -75 18 -267 54 -310
59 -28 3 -67 8 -85 10 -102 14 -207 19 -419 21 -131 1 -239 1 -240 0z"/>
</g>
</svg>
